<?xml version="1.0" encoding="utf-8"?>
<!-- Generator: Adobe Illustrator 21.0.2, SVG Export Plug-In . SVG Version: 6.00 Build 0)  -->
<svg version="1.1" id="图层_1" xmlns="http://www.w3.org/2000/svg" xmlns:xlink="http://www.w3.org/1999/xlink" x="0px" y="0px"
	 viewBox="0 0 800 800" style="enable-background:new 0 0 800 800;" xml:space="preserve" fill="#1bb394">
<path d="M379.8,529l-163.2,80.7c-18.4,8.5-33.1-8-26.3-26.4l80.7-163.3c1.4-7,4.1-13.9,9.6-19.3l225.7-225.9H152.5
	c-29,0-52.5,23.5-52.5,52.5v420.3c0,29,23.5,52.5,52.5,52.5h420.3c29,0,52.5-23.5,52.5-52.5V293.1L399.1,519.5
	C393.6,525,386.9,527.7,379.8,529L379.8,529z M226,560.9c-4.3,8.6,4,17.4,13.1,13.1l100.8-61.1L286.9,460L226,560.9z M610,255.7
	l15.4-15.4v-12.9c0-29-23.5-52.5-52.5-52.5h-13.9l-13.9,13.9L610,255.7z M306.8,427.2c7,7,41.2,41.2,65.9,65.9l210.9-211l-66.4-65.5
	L306.8,427.2z M689.1,176.6l-65.9-65.9c-14.6-14.6-38.1-14.6-52.7,0L506.2,175h52.7l24.7-24.8c7.2-7.2,19.1-7.2,26.3,0l39.6,39.6
	c7.2,7.2,7.2,19.1,0,26.4l-24.2,24.2v52.8l63.7-63.8C703.7,214.8,703.7,191.1,689.1,176.6L689.1,176.6z M689.1,176.6"/>
</svg>
