<?xml version="1.0" encoding="utf-8"?>
<!-- Generator: Adobe Illustrator 21.0.2, SVG Export Plug-In . SVG Version: 6.00 Build 0)  -->
<svg version="1.1" id="图层_1" xmlns="http://www.w3.org/2000/svg" xmlns:xlink="http://www.w3.org/1999/xlink" x="0px" y="0px"
	 viewBox="0 0 800 800" style="enable-background:new 0 0 800 800;" xml:space="preserve">
<style type="text/css">
	.st0{fill:#EC6B32;}
</style>
<path class="st0" d="M678.4,100H121.6c-11.9,0-21.6,12.4-21.6,27.5v545c0,15.1,9.7,27.5,21.6,27.5h556.8c11.9,0,21.6-12.4,21.6-27.5
	v-545C700,112.4,690.3,100,678.4,100z M549.2,227h57.3c-3.2,39.7-37.4,61.3-39,63.2l-50.7,1.2C525.9,280.2,547.2,252,549.2,227z
	 M234.1,581l20-204.8c-18.6,10.4-40.4,18-66.1,20.8c0,0-6,1.2-6.6-2.7c-1.1-7,5.4-11.3,5.4-11.3c85.6-53.4,91.4-161.6,91.7-162.4
	h78.3c-0.7,2.4-9.5,54.4-43.4,101.6L294.6,581H234.1z M588.4,580.1h-81.9c0,0-43.9-0.7-47.7-43.6c-0.2-2.7-0.4-8.7-0.4-8.7
	L472,376.2h70.3l-12.8,155.4c0,0-2.3,20.3,19,20.3h69.2C617.6,551.9,616.5,580.1,588.4,580.1z M618,326.5c0,0-1.5,23.6-29.4,23.6
	H460.2c-12.6,45.3-32.3,99.8-63.4,161.4c-12,23.9-39.8,57.9-56.8,64.9c-16.8,6.9-27.3,4-31,4c-3.7,0-4.2-2.8-2.6-4.5
	c13.8-14.5,31.1-44.9,41.5-66.8c26.1-55.4,38.3-99.9,45.7-145.1c0.4-2.5,3.3-13.8-9.3-13.8h-54.9l0.7-9.5c0,0,0.7-22.1,29.9-22.1
	h40.1c4-39.4,4.1-73,5.6-99.6l77.4,1.6c-0.8,14.3-3.2,48.6-14.7,98c71.3,0,150.4,0,150.3-0.1L618,326.5z"/>
</svg>
