<?xml version="1.0" encoding="utf-8"?>
<!-- Generator: Adobe Illustrator 21.0.2, SVG Export Plug-In . SVG Version: 6.00 Build 0)  -->
<svg version="1.1" id="图层_1" xmlns="http://www.w3.org/2000/svg" xmlns:xlink="http://www.w3.org/1999/xlink" x="0px" y="0px"
	fill="#fa7252" viewBox="0 0 800 800" style="enable-background:new 0 0 800 800;" xml:space="preserve">
<path d="M400,100c-165.8,0-300,134.5-300,300c0,165.8,134.5,300,300,300c165.8,0,300-134.5,300-300C700.3,234.5,565.8,100,400,100z
	 M534.2,462.6c-53.2-5.1-50-25-50.3-51.9c-0.2-18.7-43.6-22.3-84.2-21.9c-40.8,0.7-83.9,5-83.7,23.7c0.3,26.9,3.9,46.7-49.1,53
	c-53.3,6.5-46.9-32.3-47-58.1c-0.3-30.1,69.2-72.2,179.4-73.6c109.9-1.2,180.4,39.7,180.5,69.6C580.1,429.4,587.4,467.7,534.2,462.6
	z"/>
</svg>
