<?xml version="1.0" encoding="utf-8"?>
<!-- Generator: Adobe Illustrator 21.0.2, SVG Export Plug-In . SVG Version: 6.00 Build 0)  -->
<svg version="1.1" id="图层_1" xmlns="http://www.w3.org/2000/svg" xmlns:xlink="http://www.w3.org/1999/xlink" x="0px" y="0px"
	 viewBox="0 0 800 800" style="enable-background:new 0 0 800 800;" xml:space="preserve" fill="#04a9f4">
<path d="M400,100c-165,0-300,135-300,300c0,165,135,300,300,300c165,0,300-135,300-300C700,235,565,100,400,100z M585.2,420.6
	L445.3,560.5c-11.1,11-29,10.9-40-0.1c-11-11.1-10.9-29,0.1-40l93-93H233.2c-15.6,0-28.3-12.7-28.3-28.3c0-15.6,12.7-28.3,28.3-28.3
	h265.2l-93-93c-9.6-11.2-9-27.9,1.5-38.4c10.4-10.4,27.2-11.1,38.4-1.5l138.5,138.5c6.9,5.1,11,13.1,11.3,21.7
	C595.3,406.8,591.7,415.1,585.2,420.6z"/>
</svg>
