<?xml version="1.0" encoding="utf-8"?>
<!-- Generator: Adobe Illustrator 21.0.2, SVG Export Plug-In . SVG Version: 6.00 Build 0)  -->
<svg version="1.1" id="图层_1" xmlns="http://www.w3.org/2000/svg" xmlns:xlink="http://www.w3.org/1999/xlink" x="0px" y="0px"
	fill="#fa7252" viewBox="0 0 800 800" style="enable-background:new 0 0 800 800;" xml:space="preserve">
<path d="M400,100c-165.8,0-300,134.5-300,300c0,165.8,134.5,300,300,300c165.8,0,300-134.5,300-300C700.3,234.5,565.8,100,400,100z
	 M466.5,594c-21.3,21.3-100,1-178.1-76.8c-77.7-77.7-97.7-156.8-76.5-177.7c18.4-18.4,40.6-50.3,74.2-8.7
	c33.5,41.6,17.1,53.2-1.9,72.3c-13.2,13.2,14.5,46.8,43.2,75.5c29,28.7,62.3,56.5,75.5,43.2c19-19,30.6-35.5,72.3-1.9
	C517.2,553.3,484.9,575.9,466.5,594z M564.8,370.2c8.5,8.5,8.5,21.2,0,29.6c-8.5,8.5-21.2,8.5-29.6,0l-44.5-44.5l-44.5,44.5
	c-8.5,8.5-21.2,8.5-29.6,0c-8.5-8.5-8.5-21.2,0-29.6l44.5-44.5l-44.5-44.5c-8.5-8.5-8.5-21.2,0-29.6c8.5-8.5,21.2-8.5,29.6,0
	l44.5,44.5l44.5-44.5c8.5-8.5,21.2-8.5,29.6,0c8.5,8.5,8.5,21.2,0,29.6l-44.5,44.5L564.8,370.2z"/>
</svg>
