<?xml version="1.0" encoding="utf-8"?>
<!-- Generator: Adobe Illustrator 21.0.2, SVG Export Plug-In . SVG Version: 6.00 Build 0)  -->
<svg version="1.1" id="图层_1" xmlns="http://www.w3.org/2000/svg" xmlns:xlink="http://www.w3.org/1999/xlink" x="0px" y="0px"
	 viewBox="0 0 800 800" style="enable-background:new 0 0 800 800;" xml:space="preserve" fill="#04a9f4">
<g>
	<path d="M412.5,360.7v26.8h26.8C435.2,374.8,425.2,364.8,412.5,360.7z"/>
	<path d="M360.7,387.5h26.8v-26.8C374.8,364.8,364.8,374.8,360.7,387.5z"/>
	<path d="M268.8,387.5h66.1c5.1-26.6,26-47.5,52.6-52.6v-66.1C324.8,274.7,274.7,324.7,268.8,387.5z"/>
	<path d="M334.9,412.5h-66.1c5.9,62.8,56,112.9,118.8,118.8v-66.1C360.9,460,340,439.1,334.9,412.5z"/>
	<path d="M387.5,439.3v-26.8h-26.8C364.8,425.2,374.8,435.2,387.5,439.3z"/>
	<path d="M412.5,268.8v66.1c26.6,5.1,47.5,26,52.6,52.6h66.1C525.3,324.7,475.2,274.7,412.5,268.8z"/>
	<path d="M400,100c-165,0-300,135-300,300c0,165,135,300,300,300c165,0,300-135,300-300C700,235,565,100,400,100z M589.8,412.5
		h-33.6C550.1,489,489,550.1,412.5,556.2v33.6c0,3.3-1.3,6.5-3.7,8.8c-2.3,2.3-5.5,3.7-8.8,3.7c-3.3,0-6.5-1.3-8.8-3.7
		c-2.3-2.3-3.7-5.5-3.7-8.8v-33.6C311,550.1,249.9,489,243.8,412.5h-33.6c-6.9,0-12.5-5.6-12.5-12.5c0-6.9,5.6-12.5,12.5-12.5h33.6
		c6.1-76.5,67.2-137.6,143.7-143.7v-33.6c0-3.3,1.3-6.5,3.7-8.8c2.3-2.3,5.5-3.7,8.8-3.7c3.3,0,6.5,1.3,8.8,3.7
		c2.3,2.3,3.7,5.5,3.7,8.8v33.6c76.5,6.1,137.6,67.2,143.7,143.7h33.6c6.9,0,12.5,5.6,12.5,12.5
		C602.2,406.9,596.7,412.5,589.8,412.5z"/>
	<path d="M412.5,465.1v66.1c62.8-5.9,112.8-56,118.8-118.8h-66.1C460,439.1,439.1,460,412.5,465.1z"/>
	<path d="M439.3,412.5h-26.8v26.8C425.2,435.2,435.2,425.2,439.3,412.5z"/>
</g>
</svg>
