<?xml version="1.0" encoding="utf-8"?>
<!-- Generator: Adobe Illustrator 21.0.2, SVG Export Plug-In . SVG Version: 6.00 Build 0)  -->
<svg version="1.1" id="图层_1" xmlns="http://www.w3.org/2000/svg" xmlns:xlink="http://www.w3.org/1999/xlink" x="0px" y="0px"
	 viewBox="0 0 800 800" style="enable-background:new 0 0 800 800;" xml:space="preserve" fill="#1bb394">
<g>
	<path d="M239.6,117.3c0-9.5-7.7-17.3-17.3-17.3c-9.5,0-17.3,7.7-17.3,17.3v49.5h34.5V117.3z"/>
	<path d="M602.1,117.3c0-9.5-7.7-17.3-17.3-17.3c-9.5,0-17.3,7.7-17.3,17.3v49.5h34.5V117.3z"/>
	<path d="M673.4,166.8h-71.3v82.7c0,9.5-7.7,17.3-17.3,17.3c-9.5,0-17.3-7.7-17.3-17.3v-82.7h-328v82.7c0,9.5-7.7,17.3-17.3,17.3
		c-9.5,0-17.3-7.7-17.3-17.3v-82.7h-78.4c-9.5,0-17.3,7.7-17.3,17.3v498.7c0,9.5,7.7,17.3,17.3,17.3h546.8c9.5,0,17.3-7.7,17.3-17.3
		V184C690.7,174.5,682.9,166.8,673.4,166.8z M552.1,427.7L373.9,606c-4.9,4.9-11.5,7.6-18.4,7.6c-6.9,0-13.5-2.7-18.4-7.6
		l-89.1-89.1c-10.2-10.2-10.2-26.7,0-36.8c10.2-10.2,26.7-10.2,36.8,0l70.7,70.7l159.8-159.8c10.2-10.2,26.7-10.2,36.8,0
		C562.3,401.1,562.3,417.6,552.1,427.7z M640.8,331.9H159c-8.5,0-15.3-7.7-15.3-17.3c0-9.5,6.9-17.3,15.3-17.3h481.8
		c8.5,0,15.3,7.7,15.3,17.3C656.1,324.1,649.3,331.9,640.8,331.9z"/>
</g>
</svg>
