<?xml version="1.0" encoding="utf-8"?>
<!-- Generator: Adobe Illustrator 21.0.2, SVG Export Plug-In . SVG Version: 6.00 Build 0)  -->
<svg version="1.1" id="图层_1" xmlns="http://www.w3.org/2000/svg" xmlns:xlink="http://www.w3.org/1999/xlink" x="0px" y="0px"
	 viewBox="0 0 800 800" style="enable-background:new 0 0 800 800;" xml:space="preserve" fill="#fa7252">
<style type="text/css">
	.st0{fill:#fa7252;}
</style>
<g>
	<path class="st0" d="M400,100c-165,0-300,135-300,300c0,165,135,300,300,300c165,0,300-135,300-300C700,235,565,100,400,100z
		 M507.4,613c-32.3,2.5-63.2,3.1-107.4,3.1c-44.1,0-75.1-0.6-107.4-3.1c-55.6-4.3-83.8-53.1-83.8-73.1c0-42.6,63.9-80.4,137.6-96.3
		l1-15.3c-23.5-8.1-36-24.3-48.6-56.2c-10.9-3.9-20.6-11.8-27.2-22.3c-14.6-23.4-9.8-53.4,11.7-66.9c0.5-0.3,1-0.6,1.6-0.9
		c1.6-78.9,30.4-108.5,111.6-108.5c1.7,0,3.4,0,5,0c16.5-11.4,31.2-18.4,43.7-18.4c13.6,0,22.5,5.2,23.6,15.3
		c0.1,0.7,0.1,1.4,0.1,2.1c3.1,1.5,6.2,3.1,9.1,4.8c7.3,4.3,13,8.8,16.6,14c5.4,7.7,3.5,14-2.4,19.3c10.8,17,15.5,40.2,16,73.1
		c0.1,0.1,0.2,0.1,0.3,0.2c21.5,13.4,26.3,43.5,11.7,66.9c-6.4,10.2-15.7,17.9-26.3,21.9c-11.5,28-25.5,45.3-47.8,54.9l2,15.9
		c75.6,16.4,143,54.6,143,96.4C591.2,559.9,563,608.7,507.4,613z"/>
	<path class="st0" d="M460.7,464.3c-7.3-7.3-18.2-7.3-25.5,0l-38.2,38.2l-38.2-38.2c-7.3-7.3-18.2-7.3-25.5,0
		c-7.3,7.3-7.3,18.2,0,25.5l38.2,38.2l-38.2,38.2c-7.3,7.3-7.3,18.2,0,25.5c7.3,7.3,18.2,7.3,25.5,0l38.2-38.2l38.2,38.2
		c7.3,7.3,18.2,7.3,25.5,0s7.3-18.2,0-25.5l-38.2-38.2l38.2-38.2C467.9,482.6,467.9,471.6,460.7,464.3z"/>
</g>
</svg>
