<?xml version="1.0" encoding="utf-8"?>
<!-- Generator: Adobe Illustrator 21.0.2, SVG Export Plug-In . SVG Version: 6.00 Build 0)  -->
<svg version="1.1" id="图层_1" xmlns="http://www.w3.org/2000/svg" xmlns:xlink="http://www.w3.org/1999/xlink" x="0px" y="0px"
	 viewBox="0 0 800 800" style="enable-background:new 0 0 800 800;" xml:space="preserve" fill="#9ec9c0">
<path d="M400,100c-165.8,0-300,134.5-300,300c0,165.8,134.5,300,300,300c165.8,0,300-134.5,300-300C700.3,234.5,565.8,100,400,100z
	 M374.9,357.9c19.8-12.2,45.8-6,58,13.8c12.2,19.8,6,45.8-13.8,58c-19.8,12.2-45.8,6-58-13.8C348.9,396.1,355.1,370.1,374.9,357.9z
	 M466.5,594c-21.3,21.3-100,1-178.1-76.8c-77.7-77.7-97.7-156.8-76.5-177.7c18.4-18.4,40.6-50.3,74.2-8.7
	c33.5,41.6,17.1,53.2-1.9,72.3c-13.2,13.2,14.5,46.8,43.2,75.5c29,28.7,62.3,56.5,75.5,43.2c19-19,30.6-35.5,72.3-1.9
	C517.2,553.3,484.9,575.9,466.5,594z M506,376.2c-19.8,12.2-45.8,6-58-13.8c-12.2-19.8-6-45.8,13.8-58c19.8-12.2,45.8-6,58,13.8
	S525.8,364,506,376.2z M592.8,322.8c-19.8,12.2-45.8,6-58-13.8s-6-45.8,13.8-58c19.8-12.2,45.8-6,58,13.8
	C618.8,284.6,612.6,310.5,592.8,322.8z"/>
</svg>
