<?xml version="1.0" encoding="utf-8"?>
<!-- Generator: Adobe Illustrator 21.0.2, SVG Export Plug-In . SVG Version: 6.00 Build 0)  -->
<svg version="1.1" id="图层_1" xmlns="http://www.w3.org/2000/svg" xmlns:xlink="http://www.w3.org/1999/xlink" x="0px" y="0px"
	 viewBox="0 0 800 800" style="enable-background:new 0 0 800 800;" xml:space="preserve" fill="#04a9f4">
<style type="text/css">

</style>
<path class="st0" d="M400,100c-165.8,0-300,134.5-300,300c0,165.8,134.5,300,300,300c165.8,0,300-134.5,300-300
	C700.3,234.5,565.8,100,400,100z M389.3,342.5c1.9-8.5,8.4-14.1,16.9-12.3c19.8-1,33.9,7.5,45.2,20.6s15.1,28.2,15.1,44.2
	c-1.9,8.5-7.5,17.9-19.7,17c-8.5-1.9-17.9-7.5-17-19.7c1.9-8.5-3.8-15-4.7-18.8c-5.7-6.6-14.1-8.4-18.8-11.3
	C395,365,388.4,354.7,389.3,342.5z M466.5,594c-21.3,21.3-100,1-178.1-76.8c-77.8-77.8-97.8-156.8-76.5-177.8
	c18.4-18.4,40.6-50.3,74.2-8.7s17.1,53.3-2,72.3c-13.2,13.2,14.5,46.8,43.2,75.5c29,28.7,62.3,56.5,75.5,43.2
	c19-19,30.6-35.5,72.3-1.9C517.2,553.3,484.9,575.9,466.5,594z M524.9,388.3c-1.9,8.5-7.5,17.9-19.7,17c-8.5-1.9-17.9-7.5-17-19.7
	c1.8-40.5-27.4-77.1-67.9-78.9c-8.5-1.9-15.1-12.2-14.2-24.4c1.9-8.5,8.5-14.2,16.9-12.3c60.6,4.3,106.2,56.8,101.9,117.4
	C524.9,387.7,524.9,388,524.9,388.3L524.9,388.3z M595.5,398.5c-1.9,8.5-7.5,17.9-19.7,17c-8.5-1.9-17.9-7.5-17-19.7
	c1.8-40.5-8.6-81.8-36-110.9c-27.4-29.1-64-47.9-105.4-53.5c-7.5,1.9-14.1-8.4-13.2-20.7c1.9-8.5,8.4-14.1,16.9-12.3
	c48.9,3.7,95.1,28,128.1,63.7C583,301.6,599.1,349.6,595.5,398.5L595.5,398.5z"/>
</svg>
