<?xml version="1.0" encoding="utf-8"?>
<!-- Generator: Adobe Illustrator 21.0.2, SVG Export Plug-In . SVG Version: 6.00 Build 0)  -->
<svg version="1.1" id="图层_1" xmlns="http://www.w3.org/2000/svg" xmlns:xlink="http://www.w3.org/1999/xlink" x="0px" y="0px"
	 viewBox="0 0 800 800" style="enable-background:new 0 0 800 800;" xml:space="preserve" fill="#fa7252">
<path d="M400,100c-165,0-300,135-300,300c0,165,135,300,300,300c165,0,300-135,300-300C700,235,565,100,400,100z M362.9,535.5
	c0,12.3-12.3,20.5-28.7,20.5c-16.4,0-28.7-8.2-28.7-20.5v-271c0-12.3,12.3-20.5,28.7-20.5c16.4,0,28.7,8.2,28.7,20.5V535.5z
	 M498.4,535.5c0,12.3-12.3,20.5-28.7,20.5c-16.4,0-28.7-8.2-28.7-20.5v-271c0-12.3,12.3-20.5,28.7-20.5c16.4,0,28.7,8.2,28.7,20.5
	V535.5z"/>
</svg>
